<svg width="38" height="38" viewBox="0 0 38 38" fill="none" xmlns="http://www.w3.org/2000/svg">
<mask id="mask0" mask-type="alpha" maskUnits="userSpaceOnUse" x="0" y="0" width="38" height="38">
<circle cx="19" cy="19" r="19" fill="white"/>
</mask>
<g mask="url(#mask0)">
<path d="M25.8915 20.4132L26.5836 25.0363C26.65 25.4805 26.879 25.8842 27.226 26.1693L32.0132 30.1029C32.7857 30.7376 33.929 30.6286 34.5666 29.853C35.2025 29.0789 35.0907 27.9357 34.3167 27.2997L30.0685 23.8091L29.4797 19.8763L30.6851 22.8796L32.7485 24.5751L31.3504 16.9345C31.1492 15.8347 30.2574 15.0398 29.2211 15.0398C27.8864 15.0398 26.9477 15.0398 25.4663 15.0398C24.4278 15.0398 23.5386 15.8324 23.337 16.9345L20.0179 35.0737C19.9042 35.6953 20.3474 36.267 20.9232 36.267H22.691V49.1881C22.691 50.3903 23.6656 51.365 24.8679 51.365C26.0702 51.365 27.0448 50.3903 27.0448 49.1881V36.2669H27.8031L28.9033 40.4201L29.2808 49.2806C29.3307 50.4503 30.2945 51.3649 31.4541 51.3649C31.4855 51.3649 31.5168 51.3642 31.5485 51.3628C32.7496 51.3117 33.6818 50.2965 33.6307 49.0953L33.2432 39.9986C33.2364 39.8416 33.2129 39.6857 33.1726 39.5338L32.3071 36.2669H33.764C34.3458 36.2669 34.7823 35.6912 34.6694 35.0736L34.0152 31.4984C33.1118 31.7722 32.0929 31.6044 31.3088 30.9602C29.7192 29.654 27.7117 28.0045 26.116 26.6934C25.6593 26.3181 25.4436 25.7483 25.4861 25.2005L25.8915 20.4132Z" fill="#FF6969"/>
<path d="M28.7726 13.3715C30.6733 12.5837 31.5754 10.4042 30.7876 8.50352C29.9998 6.60284 27.8203 5.7007 25.9196 6.48853C24.0189 7.27637 23.1167 9.45585 23.9045 11.3565C24.6924 13.2572 26.8719 14.1594 28.7726 13.3715Z" fill="#FF6969"/>
<path d="M18.7227 25.535L14.3344 24.0442L17.7104 27.8019C18.073 28.2054 18.3034 28.6812 18.4063 29.1767C19.0759 29.0721 19.6662 28.6083 19.8992 27.9222C20.2335 26.9381 19.7067 25.8694 18.7227 25.535V25.535Z" fill="#3D4CF2"/>
<path d="M12.4381 23.549L11.346 19.3917L12.99 22.5475L13.8798 23.5379V17.4681C13.8798 16.0414 12.7232 14.8848 11.2965 14.8848H8.94254C6.20318 14.8848 3.98252 17.1054 3.98252 19.8448V31.9044L5.32289 38.9646L0.680581 48.1714C0.133117 49.257 0.569547 50.5807 1.65501 51.1281C2.73594 51.6733 4.06211 51.2436 4.61171 50.1537L9.59278 40.2751C9.81234 39.8397 9.88117 39.3436 9.78822 38.8649L8.4383 31.9044H9.19187L11.0228 39.2021L9.48796 48.8156C9.27443 50.1528 10.3075 51.3643 11.6645 51.3643C12.7273 51.3642 13.6627 50.5926 13.8356 49.5097L15.4415 39.4507C15.4884 39.1569 15.4753 38.8566 15.4029 38.5681L13.8065 32.205C13.3141 31.8589 13.5711 32.0172 8.53087 26.4469C8.38153 26.2381 7.89343 25.9179 7.8695 25.2201L7.70597 20.3476L8.91388 24.9457C8.99003 25.2353 9.13399 25.5025 9.33416 25.7253L14.1076 31.0385C14.8015 31.8106 15.9913 31.876 16.7651 31.1807C17.5381 30.4861 17.6019 29.2963 16.9073 28.5232L12.4381 23.549Z" fill="#3D4CF2"/>
<path d="M12.2636 13.6291C14.3034 12.9427 15.4006 10.7327 14.7142 8.69286C14.0278 6.65306 11.8178 5.55591 9.77797 6.24229C7.73818 6.92868 6.64102 9.13869 7.32741 11.1785C8.0138 13.2183 10.2238 14.3154 12.2636 13.6291Z" fill="#3D4CF2"/>
</g>
</svg>
